<svg width="1200" height="630" viewBox="0 0 1200 630" fill="none" xmlns="http://www.w3.org/2000/svg">
  <defs>
    <linearGradient id="bg" x1="0" y1="0" x2="1200" y2="630" gradientUnits="userSpaceOnUse">
      <stop offset="0" stop-color="#070707"/>
      <stop offset="1" stop-color="#111111"/>
    </linearGradient>
    <radialGradient id="glowA" cx="0" cy="0" r="1" gradientUnits="userSpaceOnUse" gradientTransform="translate(180 120) rotate(16) scale(380 240)">
      <stop stop-color="#FFFFFF" stop-opacity="0.12"/>
      <stop offset="1" stop-color="#FFFFFF" stop-opacity="0"/>
    </radialGradient>
    <radialGradient id="glowB" cx="0" cy="0" r="1" gradientUnits="userSpaceOnUse" gradientTransform="translate(990 110) rotate(-10) scale(340 220)">
      <stop stop-color="#FFFFFF" stop-opacity="0.08"/>
      <stop offset="1" stop-color="#FFFFFF" stop-opacity="0"/>
    </radialGradient>
    <radialGradient id="glowC" cx="0" cy="0" r="1" gradientUnits="userSpaceOnUse" gradientTransform="translate(930 520) rotate(-14) scale(420 260)">
      <stop stop-color="#FFFFFF" stop-opacity="0.06"/>
      <stop offset="1" stop-color="#FFFFFF" stop-opacity="0"/>
    </radialGradient>
  </defs>

  <rect width="1200" height="630" fill="url(#bg)"/>
  <rect width="1200" height="630" fill="url(#glowA)"/>
  <rect width="1200" height="630" fill="url(#glowB)"/>
  <rect width="1200" height="630" fill="url(#glowC)"/>

  <g opacity="0.9">
    <rect x="56" y="54" width="1088" height="522" rx="28" fill="#0C0C0C" stroke="#2A2A2A" stroke-width="2"/>
    <rect x="84" y="92" width="650" height="190" rx="22" fill="#101010" stroke="#2A2A2A" stroke-width="2"/>
    <rect x="762" y="92" width="354" height="190" rx="22" fill="#101010" stroke="#2A2A2A" stroke-width="2"/>
    <rect x="84" y="310" width="498" height="236" rx="22" fill="#101010" stroke="#2A2A2A" stroke-width="2"/>
    <rect x="610" y="310" width="506" height="236" rx="22" fill="#101010" stroke="#2A2A2A" stroke-width="2"/>
  </g>

  <g opacity="0.6">
    <rect x="804" y="124" width="270" height="12" rx="6" fill="#BFBFBF"/>
    <rect x="804" y="149" width="206" height="10" rx="5" fill="#5A5A5A"/>
    <rect x="804" y="173" width="240" height="10" rx="5" fill="#3F3F3F"/>
    <rect x="804" y="210" width="132" height="34" rx="11" fill="#EDEDED"/>
  </g>

  <g opacity="0.65">
    <rect x="118" y="342" width="430" height="14" rx="7" fill="#BFBFBF"/>
    <rect x="118" y="374" width="388" height="10" rx="5" fill="#494949"/>
    <rect x="118" y="404" width="410" height="10" rx="5" fill="#333333"/>
    <rect x="118" y="452" width="176" height="36" rx="12" fill="#151515" stroke="#3A3A3A" stroke-width="2"/>
    <rect x="308" y="452" width="136" height="36" rx="12" fill="#EDEDED"/>
  </g>

  <g opacity="0.75">
    <rect x="642" y="342" width="110" height="12" rx="6" fill="#8E8E8E"/>
    <rect x="770" y="342" width="110" height="12" rx="6" fill="#8E8E8E"/>
    <rect x="898" y="342" width="110" height="12" rx="6" fill="#8E8E8E"/>
    <rect x="642" y="374" width="442" height="2" fill="#2F2F2F"/>
    <rect x="642" y="414" width="442" height="2" fill="#2F2F2F"/>
    <rect x="642" y="454" width="442" height="2" fill="#2F2F2F"/>
    <rect x="642" y="494" width="442" height="2" fill="#2F2F2F"/>
  </g>

  <g>
    <rect x="110" y="118" width="56" height="56" rx="14" fill="#090909" stroke="#2F2F2F" stroke-width="2"/>
    <path d="M125 161V130H141.5V145.5H152V130H168V161" stroke="#F2F2F2" stroke-width="3" stroke-linecap="round" stroke-linejoin="round"/>
    <text x="190" y="147" fill="#F4F4F5" font-family="Georgia, 'Times New Roman', serif" font-size="28" font-weight="700">mjölksyra</text>
    <text x="112" y="217" fill="#F4F4F5" font-family="Georgia, 'Times New Roman', serif" font-size="54" font-weight="700">Coach athletes.</text>
    <text x="112" y="274" fill="#F4F4F5" font-family="Georgia, 'Times New Roman', serif" font-size="54" font-weight="700">Build training blocks.</text>
    <text x="112" y="300" fill="#9A9A9A" font-family="ui-serif, Georgia, serif" font-size="20">Structured coaching workspace for programming, planning, and athlete management.</text>
  </g>
</svg>
