<svg width="920" height="760" viewBox="0 0 920 760" fill="none" xmlns="http://www.w3.org/2000/svg">
  <defs>
    <linearGradient id="bg" x1="80" y1="40" x2="860" y2="700" gradientUnits="userSpaceOnUse">
      <stop stop-color="#18181B"/>
      <stop offset="1" stop-color="#0A0A0B"/>
    </linearGradient>
    <linearGradient id="panel" x1="180" y1="150" x2="680" y2="620" gradientUnits="userSpaceOnUse">
      <stop stop-color="#111116"/>
      <stop offset="1" stop-color="#0D0D11"/>
    </linearGradient>
    <linearGradient id="accent" x1="0" y1="0" x2="1" y2="1">
      <stop stop-color="#F8FAFC"/>
      <stop offset="1" stop-color="#CBD5E1"/>
    </linearGradient>
    <filter id="shadow" x="72" y="56" width="776" height="648" filterUnits="userSpaceOnUse" color-interpolation-filters="sRGB">
      <feFlood flood-opacity="0" result="BackgroundImageFix"/>
      <feColorMatrix in="SourceAlpha" type="matrix" values="0 0 0 0 0 0 0 0 0 0 0 0 0 0 0 0 0 0 127 0" result="hardAlpha"/>
      <feOffset dy="20"/>
      <feGaussianBlur stdDeviation="24"/>
      <feComposite in2="hardAlpha" operator="out"/>
      <feColorMatrix type="matrix" values="0 0 0 0 0 0 0 0 0 0 0 0 0 0 0 0 0 0 0.5 0"/>
      <feBlend mode="normal" in2="BackgroundImageFix" result="effect1_dropShadow_1_2"/>
      <feBlend mode="normal" in="SourceGraphic" in2="effect1_dropShadow_1_2" result="shape"/>
    </filter>
  </defs>

  <rect x="100" y="80" width="720" height="600" rx="42" fill="url(#bg)" stroke="#2A2A31" stroke-width="2"/>
  <g filter="url(#shadow)">
    <rect x="120" y="100" width="680" height="560" rx="34" fill="url(#panel)" stroke="#33343C" stroke-width="2"/>
  </g>

  <rect x="160" y="146" width="600" height="54" rx="14" fill="#17171D" stroke="#2C2D36"/>
  <circle cx="192" cy="173" r="8" fill="#31323A"/>
  <circle cx="218" cy="173" r="8" fill="#31323A"/>
  <circle cx="244" cy="173" r="8" fill="#31323A"/>
  <rect x="292" y="161" width="132" height="24" rx="8" fill="#22242E"/>
  <rect x="438" y="161" width="92" height="24" rx="8" fill="#20222A"/>
  <rect x="545" y="161" width="142" height="24" rx="8" fill="#F3F4F6"/>

  <rect x="160" y="224" width="390" height="196" rx="20" fill="#121217" stroke="#2E2F38"/>
  <text x="188" y="258" fill="#EFEFF1" font-size="18" font-family="Georgia, 'Times New Roman', serif" font-weight="700">Week Overview</text>
  <rect x="188" y="278" width="334" height="1" fill="#2F3038"/>
  <rect x="188" y="300" width="44" height="28" rx="8" fill="#1F2028"/>
  <rect x="244" y="300" width="44" height="28" rx="8" fill="#1F2028"/>
  <rect x="300" y="300" width="44" height="28" rx="8" fill="#1F2028"/>
  <rect x="356" y="300" width="44" height="28" rx="8" fill="#F3F4F6"/>
  <rect x="412" y="300" width="44" height="28" rx="8" fill="#1F2028"/>
  <rect x="468" y="300" width="44" height="28" rx="8" fill="#1F2028"/>
  <rect x="188" y="344" width="156" height="56" rx="12" fill="#161821" stroke="#2F313C"/>
  <rect x="358" y="344" width="164" height="56" rx="12" fill="#161821" stroke="#2F313C"/>

  <rect x="570" y="224" width="190" height="196" rx="20" fill="#121217" stroke="#2E2F38"/>
  <text x="598" y="258" fill="#EFEFF1" font-size="18" font-family="Georgia, 'Times New Roman', serif" font-weight="700">Load</text>
  <path d="M596 360C618 324 630 334 646 312C662 290 680 326 698 302C716 278 734 296 746 276" stroke="url(#accent)" stroke-width="3.5" stroke-linecap="round"/>
  <circle cx="646" cy="312" r="6" fill="#F3F4F6"/>
  <circle cx="698" cy="302" r="6" fill="#F3F4F6"/>
  <circle cx="746" cy="276" r="6" fill="#F3F4F6"/>

  <rect x="160" y="442" width="600" height="178" rx="20" fill="#121217" stroke="#2E2F38"/>
  <text x="188" y="476" fill="#EFEFF1" font-size="18" font-family="Georgia, 'Times New Roman', serif" font-weight="700">Session Builder</text>
  <rect x="188" y="496" width="542" height="1" fill="#2F3038"/>
  <rect x="188" y="518" width="542" height="38" rx="11" fill="#171821" stroke="#303241"/>
  <rect x="188" y="570" width="264" height="30" rx="10" fill="#F3F4F6"/>
  <rect x="466" y="570" width="264" height="30" rx="10" fill="#22242D"/>

  <g transform="translate(686 526)">
    <rect x="-2" y="-2" width="76" height="76" rx="18" fill="#121217" stroke="#343642"/>
    <rect x="10" y="32" width="52" height="8" rx="4" fill="#F3F4F6"/>
    <rect x="20" y="20" width="8" height="32" rx="3" fill="#F3F4F6"/>
    <rect x="44" y="20" width="8" height="32" rx="3" fill="#F3F4F6"/>
    <rect x="6" y="24" width="6" height="24" rx="2" fill="#CBD5E1"/>
    <rect x="60" y="24" width="6" height="24" rx="2" fill="#CBD5E1"/>
  </g>
</svg>
