<?xml version="1.0" ?><svg viewBox="0 0 128 128" xmlns="http://www.w3.org/2000/svg">
  <defs>
    <style>.cls-1{fill:none;stroke:url(#whiteGradient);stroke-linecap:round;stroke-linejoin:round;stroke-width:4px;}</style>
    <linearGradient id="whiteGradient" x1="0%" y1="0%" x2="100%" y2="100%">
      <stop offset="0%" style="stop-color:#ffffff;stop-opacity:1" /> <!-- white -->
      <stop offset="100%" style="stop-color:#e7e5e4;stop-opacity:1" /> <!-- stone-200 -->
    </linearGradient>
  </defs>
  <g data-name="Milk Carton" id="Milk_Carton">
    <g id="Outline">
      <rect class="cls-1" height="74" width="68" x="19" y="50"/>
      <polygon class="cls-1" points="109 116 87 124 87 50 109 42 109 116"/>
      <polyline class="cls-1" points="54.94 22 27 22 19 50 87 50 95 22 65.12 22"/>
      <polyline class="cls-1" points="109 42 95 22 95 12 78.05 12"/>
      <polyline class="cls-1" points="27 22 27 12 65.25 12"/>
      <path class="cls-1" d="M19,68s13-11,34,0,34,0,34,0A58.29,58.29,0,0,0,98,58c5-6,11-5,11-5"/>
      <path class="cls-1" d="M19,108.1s13-11,34,0,34,0,34,0a58.41,58.41,0,0,0,11-10c5-6,11-5,11-5"/>
      <path class="cls-1" d="M31,96.12l.11-7.29.06-3.68c0-.64,0-1.29,0-1.93a3.57,3.57,0,0,1,.25-1.81c.4-.62,1-.34,1.25.23.76,2.13,1.59,4.24,2.41,6.35a1,1,0,0,0,1.6.29A9.16,9.16,0,0,0,38.49,85c.39-1.09.66-2.84,1.61-3.75a.73.73,0,0,1,1.21.48c.22,2.18.1,4.4.12,6.59q0,4-.11,7.92"/>
      <path class="cls-1" d="M47.13,81V96.2"/>
      <path class="cls-1" d="M52.71,81c.21,4.77-.4,9.59.49,14.3a.73.73,0,0,0,.19.44,1.16,1.16,0,0,0,.6.2,36,36,0,0,0,7.19.15"/>
      <path class="cls-1" d="M65.63,81q-.22,7.65.23,15.31a22.34,22.34,0,0,1,.32-4.54,7,7,0,0,1,.91-2.89,9.13,9.13,0,0,1,1.84-2c2-1.69,4.13-3.25,6.27-4.81a39.33,39.33,0,0,0-4.18,3,5.32,5.32,0,0,0-1.55,1.55,3.07,3.07,0,0,0-.34,1.7c.15,2.17,2,4,3.69,5.62L76,97"/>
      <path class="cls-1" d="M53.81,27.27A9,9,0,0,0,56,45a9.33,9.33,0,0,0,2-.22,9,9,0,0,0,3.25-16.09"/>
      <path class="cls-1" d="M58,44.78l3.25-16.09.89-4.37,2.8-2.17.19-.15L78.05,12l1.18-.91,0,0"/>
      <path class="cls-1" d="M75,4.44c1.25-1,3.23-.29,4.41,1.54s1.13,4.08-.12,5.06l0,0a2.2,2.2,0,0,1-.25.17,2,2,0,0,1-.34.13,1.09,1.09,0,0,1-.3.07,2.05,2.05,0,0,1-.7,0l-.17,0a2,2,0,0,1-.33-.08,3.44,3.44,0,0,1-1.22-.67c-.13-.11-.26-.22-.38-.34a5.1,5.1,0,0,1-.68-.84,4.11,4.11,0,0,1-.37-.68,4.59,4.59,0,0,1-.27-.7,4.26,4.26,0,0,1-.07-2.39,2.46,2.46,0,0,1,.14-.38,1.15,1.15,0,0,1,.14-.27.86.86,0,0,1,.1-.16,1.92,1.92,0,0,1,.18-.22A1.73,1.73,0,0,1,75,4.44L65.25,12l-9.93,7.69,0,0-.28,1.72-.12.55-1.13,5.27L50.42,43.05"/>
      <path class="cls-1" d="M79.3,11c-1.26,1-3.23.29-4.42-1.54S73.75,5.42,75,4.44,78.24,4.16,79.42,6,80.55,10.06,79.3,11Z"/>
    </g>
  </g>
</svg>