<?xml version="1.0" standalone="no"?>
<!DOCTYPE svg PUBLIC "-//W3C//DTD SVG 20010904//EN"
 "http://www.w3.org/TR/2001/REC-SVG-20010904/DTD/svg10.dtd">
<svg version="1.0" xmlns="http://www.w3.org/2000/svg"
 width="512.000000pt" height="512.000000pt" viewBox="0 0 512.000000 512.000000"
 preserveAspectRatio="xMidYMid meet">
<metadata>
Created by potrace 1.16, written by Peter Selinger 2001-2019
</metadata>
<g transform="translate(0.000000,512.000000) scale(0.100000,-0.100000)"
fill="#FFF" stroke="none">
<path d="M2920 4586 c-27 -33 18 -72 48 -42 13 13 14 20 6 34 -15 23 -38 26
-54 8z m30 -16 c0 -5 -4 -10 -10 -10 -5 0 -10 5 -10 10 0 6 5 10 10 10 6 0 10
-4 10 -10z"/>
<path d="M2519 4465 c-33 -18 -46 -51 -58 -148 -6 -55 -18 -94 -40 -135 -69
-126 -91 -179 -101 -252 -6 -41 -22 -118 -35 -171 -14 -52 -28 -123 -31 -158
-6 -51 -10 -61 -23 -56 -59 24 -203 14 -282 -19 -24 -10 -45 91 -29 139 10 30
9 40 -4 60 -19 29 -38 32 -60 9 -23 -22 -20 -47 8 -75 13 -13 29 -44 36 -69 6
-25 13 -52 16 -61 3 -9 -13 -27 -43 -48 -46 -32 -47 -33 -80 -17 -35 17 -41
34 -21 66 30 47 -36 109 -69 64 -25 -35 -21 -45 64 -135 l34 -36 -69 -42 c-37
-22 -75 -41 -83 -41 -8 0 -22 21 -32 48 -26 67 -32 77 -48 77 -24 0 -21 -34 4
-57 29 -28 50 -65 43 -77 -3 -5 -26 -12 -50 -15 -25 -4 -62 -18 -82 -32 -31
-21 -41 -24 -61 -15 -13 6 -34 9 -46 6 -16 -4 -25 0 -32 17 -21 49 -106 20
-90 -31 11 -34 41 -45 77 -27 36 18 114 21 124 5 8 -14 26 -142 64 -461 16
-139 43 -361 59 -493 61 -489 73 -589 121 -1000 28 -231 52 -434 55 -451 l5
-32 -87 -7 c-49 -4 -101 -13 -117 -21 -21 -10 -68 -14 -165 -14 -129 0 -361
-21 -426 -38 -34 -9 -45 -36 -19 -46 9 -4 75 -11 146 -17 138 -12 731 -9 744
3 4 4 2 14 -5 21 -9 12 -68 15 -294 19 -267 4 -351 13 -301 32 10 4 99 9 198
12 100 2 214 10 254 16 l72 11 37 -38 c50 -51 105 -72 273 -103 139 -25 161
-26 500 -26 326 0 366 1 490 23 74 12 169 34 210 48 72 24 82 25 230 19 87 -4
161 -3 168 2 24 16 -16 24 -154 29 l-131 6 13 26 c8 15 33 191 59 416 24 215
58 512 75 660 17 149 38 295 45 325 8 30 28 181 45 335 17 154 44 390 61 524
32 267 33 262 -28 288 -41 16 -43 43 -8 85 14 16 25 35 25 42 0 7 11 23 25 36
14 13 25 33 25 45 0 26 79 85 114 85 26 0 66 38 66 63 0 9 -11 24 -25 33 -23
15 -27 15 -50 0 -14 -9 -31 -32 -39 -51 -8 -19 -27 -50 -42 -69 -22 -27 -32
-33 -45 -26 -19 11 -69 -22 -69 -45 0 -8 -12 -25 -26 -38 -26 -25 -30 -47 -19
-103 4 -19 3 -34 -4 -38 -16 -10 -128 13 -176 36 l-44 21 35 40 c19 23 34 44
34 49 0 4 18 17 40 28 46 23 66 60 50 91 -11 19 -45 25 -66 11 -17 -11 -34
-48 -34 -76 0 -29 -19 -76 -31 -76 -4 0 -11 5 -14 10 -9 15 -51 12 -65 -5 -7
-8 -10 -26 -8 -39 5 -27 -11 -36 -70 -36 -29 0 -43 10 -89 60 -35 37 -78 71
-116 90 -52 26 -71 30 -141 30 -95 -1 -155 -22 -256 -90 -55 -38 -72 -44 -117
-45 -42 0 -59 6 -95 31 -40 28 -43 34 -40 70 10 139 158 548 218 605 l24 23
20 -22 c41 -43 120 -15 120 42 0 25 -32 56 -59 56 -21 0 -115 -65 -144 -100
-35 -42 -77 -133 -131 -288 -56 -163 -86 -305 -86 -409 0 -44 -9 -122 -22
-180 -20 -92 -25 -103 -44 -103 -51 0 -53 5 -33 83 12 43 23 137 29 232 7 114
17 189 35 260 14 55 32 140 40 188 7 49 24 109 37 135 13 26 39 75 57 109 18
35 35 80 37 100 9 63 10 64 38 51 l25 -11 -35 -64 c-44 -77 -39 -93 8 -26 108
155 125 201 91 241 -25 28 -53 34 -84 17z m69 -51 c3 -33 -29 -84 -53 -84 -17
0 -35 31 -35 61 0 32 29 60 59 57 21 -2 27 -9 29 -34z m126 -210 c35 -14 11
-64 -31 -64 -34 0 -41 29 -14 52 26 21 24 20 45 12z m-816 -497 c2 -10 -3 -17
-12 -17 -18 0 -29 16 -21 31 9 14 29 6 33 -14z m1972 -40 c0 -19 -21 -37 -42
-37 -21 0 -24 20 -6 38 16 16 48 15 48 -1z m-2121 -96 c8 -14 7 -22 -4 -31
-12 -10 -16 -8 -24 11 -14 39 9 56 28 20z m1749 -2 c-4 -29 -33 -48 -49 -32
-16 16 6 53 32 53 15 0 20 -5 17 -21z m-518 -55 c41 -12 67 -29 110 -72 31
-32 62 -67 69 -80 11 -21 10 -22 -22 -22 -50 0 -93 -18 -177 -72 -119 -77
-201 -99 -416 -111 -100 -5 -190 -7 -199 -3 -14 5 -16 13 -10 44 8 45 14 48
80 57 63 7 111 35 133 77 29 52 67 91 127 127 115 69 203 85 305 55z m710 3
c0 -14 -20 -37 -32 -37 -12 0 -10 24 4 38 16 16 28 15 28 -1z m-1476 -7 c34
-13 41 -45 28 -145 -10 -77 -15 -88 -59 -145 l-48 -61 -85 5 c-88 6 -430 53
-438 60 -2 3 13 8 34 12 62 11 85 27 144 105 60 81 139 142 210 164 53 16 177
19 214 5z m293 -120 c48 0 49 0 29 -39 -21 -40 -57 -60 -126 -70 -52 -7 -60
-6 -55 7 3 8 8 48 12 87 l6 73 45 -29 c32 -20 59 -29 89 -29z m858 40 c0 -22
-39 -19 -43 3 -3 15 1 18 20 15 12 -2 23 -10 23 -18z m285 12 c0 -12 -23 -32
-37 -32 -17 0 -17 27 0 33 19 8 37 8 37 -1z m-1911 -117 c-23 -32 -41 -46 -63
-50 -17 -3 -53 -9 -81 -14 -97 -18 -68 9 39 35 45 11 80 27 100 45 17 16 32
29 34 29 2 0 -11 -20 -29 -45z m1648 10 c20 -9 55 -30 77 -49 23 -18 50 -38
61 -44 25 -13 14 -18 -67 -30 l-56 -9 -37 38 c-20 21 -60 50 -89 63 -50 24
-50 25 -26 35 37 15 96 13 137 -4z m-121 -60 c27 -14 61 -36 73 -49 l24 -25
-24 -5 c-85 -20 -629 -57 -564 -39 78 21 146 50 202 85 36 23 81 47 101 55 49
17 123 9 188 -22z m-1951 15 c3 -5 -3 -10 -14 -10 -12 0 -21 5 -21 10 0 6 6
10 14 10 8 0 18 -4 21 -10z m2210 -10 c19 -8 19 -9 -2 -9 -12 -1 -25 4 -28 9
-7 12 2 12 30 0z m45 0 c0 -5 -5 -10 -11 -10 -5 0 -7 5 -4 10 3 6 8 10 11 10
2 0 4 -4 4 -10z m67 -16 c2 -6 -8 -14 -22 -16 -28 -6 -27 -6 -19 17 7 17 35
17 41 -1z m-2317 -4 c0 -5 -6 -10 -14 -10 -8 0 -18 5 -21 10 -3 6 3 10 14 10
12 0 21 -4 21 -10z m894 -68 c-5 -23 -12 -32 -26 -32 -19 0 -19 2 -6 23 8 12
18 28 22 35 12 21 17 8 10 -26z m-641 11 c-7 -2 -19 -2 -25 0 -7 3 -2 5 12 5
14 0 19 -2 13 -5z m2025 1 c-11 -10 -183 -34 -287 -38 -132 -6 -110 -1 94 23
187 22 200 23 193 15z m-1960 -11 c-10 -2 -26 -2 -35 0 -10 3 -2 5 17 5 19 0
27 -2 18 -5z m-41 -25 c31 -34 40 -57 68 -163 14 -54 30 -104 36 -111 8 -10 5
-15 -16 -20 -14 -3 -28 -4 -30 -2 -5 4 -36 158 -34 168 0 3 7 -11 14 -30 9
-24 14 -29 14 -15 1 12 -19 60 -43 108 -44 88 -46 106 -9 65z m238 7 l100 -14
-95 5 c-52 3 -113 9 -135 14 l-40 8 35 0 c19 0 80 -6 135 -13z m1790 -62 c-9
-95 -15 -115 -34 -104 -11 7 -12 22 -2 86 12 83 16 95 33 95 7 0 8 -25 3 -77z
m-1915 53 c47 -8 166 -20 265 -27 99 -7 186 -17 194 -23 10 -8 12 -26 8 -73
-8 -78 -20 -103 -52 -103 -29 0 -60 -13 -145 -62 -77 -45 -125 -49 -184 -15
-58 33 -92 82 -127 182 -17 49 -38 99 -46 112 -18 27 -22 27 87 9z m1839 -36
c-17 -27 -45 -61 -62 -76 -18 -14 -23 -21 -12 -15 29 15 47 32 74 66 l24 30
-8 -50 c-4 -27 -8 -57 -8 -67 -1 -13 -10 -16 -47 -13 -25 1 -52 5 -60 8 -8 3
-37 13 -65 21 l-50 16 45 -5 c39 -4 42 -4 20 6 -31 13 -139 13 -175 -1 -14 -5
-38 -10 -53 -10 -18 0 -23 -3 -14 -9 9 -5 -3 -15 -40 -31 -51 -22 -57 -23
-149 -11 -110 13 -189 5 -279 -30 -43 -17 -84 -22 -190 -26 -74 -2 -146 -5
-160 -6 -16 -1 -26 4 -28 15 -5 25 93 120 154 151 48 24 56 25 419 37 213 7
431 19 515 29 80 10 153 19 162 20 15 1 13 -7 -13 -49z m-1930 -170 l19 -95
-21 -18 c-16 -14 -22 -15 -28 -5 -7 14 -40 260 -38 293 2 40 48 -80 68 -175z
m682 133 l-5 -38 -7 30 c-6 23 -8 15 -7 -30 2 -145 1 -152 -33 -164 -75 -26
-81 -13 -53 106 8 37 14 83 12 101 l-4 32 51 0 51 0 -5 -37z m123 1 c-32 -19
-72 -47 -88 -62 l-29 -27 6 25 c4 14 7 42 7 63 l0 37 82 0 82 0 -60 -36z m957
-80 c24 -8 64 -16 89 -18 37 -2 46 -6 48 -23 2 -14 -3 -23 -15 -27 -10 -3 9
-3 42 -1 95 7 35 -11 -103 -29 -68 -10 -133 -21 -145 -26 -29 -12 -12 -12 54
-1 30 6 81 13 114 16 33 3 75 8 93 12 27 4 32 2 32 -13 1 -52 -74 -681 -91
-759 -10 -49 -44 -290 -74 -535 -31 -245 -58 -460 -62 -479 -4 -25 -16 -40
-52 -62 -211 -135 -990 -160 -1324 -44 -39 13 -77 31 -85 39 -11 11 -29 141
-67 483 -29 257 -54 470 -54 473 -1 2 -6 -1 -11 -6 -10 -10 31 -414 79 -784
10 -80 18 -146 17 -147 -1 -1 -15 8 -30 21 l-29 22 -53 440 c-29 241 -61 461
-70 488 -19 58 -10 70 46 61 79 -13 168 -108 189 -202 5 -27 20 -158 33 -293
13 -135 24 -235 26 -222 4 30 -26 377 -40 462 -21 129 -60 199 -136 250 -34
23 -57 30 -92 30 l-47 0 -7 46 c-3 26 -6 58 -6 72 l0 25 81 -7 c136 -11 260
-74 317 -161 42 -63 58 -142 82 -409 11 -126 22 -232 25 -234 14 -14 -4 328
-26 478 -27 193 -145 323 -333 366 l-61 14 71 -4 c141 -9 271 -72 330 -161 66
-100 75 -138 85 -370 15 -361 34 -457 106 -529 69 -69 156 -69 228 1 70 68 87
129 140 498 37 254 45 282 112 356 45 50 29 51 -19 2 -70 -73 -84 -119 -128
-400 -44 -283 -58 -342 -92 -393 -55 -81 -147 -105 -208 -54 -74 63 -96 162
-106 482 -8 254 -2 292 55 352 39 41 89 60 161 60 94 0 162 -37 200 -109 14
-26 19 -31 20 -16 0 29 -33 78 -72 108 -90 69 -259 57 -335 -25 -12 -12 -31
-43 -42 -68 -12 -28 -20 -38 -20 -25 -1 11 -14 47 -30 80 -68 143 -246 236
-458 239 -54 0 -93 5 -93 11 0 7 -42 345 -50 400 0 0 62 -9 138 -21 236 -37
421 -54 597 -54 193 0 249 -10 370 -65 43 -20 100 -39 126 -42 115 -14 230 48
332 179 99 127 140 154 257 168 l65 7 -66 2 c-118 2 -164 -25 -270 -160 -39
-48 -84 -98 -102 -110 l-32 -21 25 22 c14 12 61 70 105 128 59 77 98 118 144
149 65 45 64 55 -4 24 -57 -26 -98 -63 -165 -150 -32 -42 -73 -90 -91 -108
-71 -67 -154 -80 -254 -37 -188 81 -176 78 -345 74 -85 -2 -245 -4 -355 -4
-204 -1 -219 1 -368 46 l-69 20 29 19 c43 29 84 23 170 -22 72 -38 82 -41 138
-36 38 3 104 22 180 52 147 57 235 75 374 75 91 0 119 4 182 26 76 27 158 34
319 25 61 -4 71 -1 143 38 88 46 142 53 218 25z m-1223 -130 c4 -31 -136 -84
-221 -83 l-62 0 42 13 c22 8 55 23 71 35 83 59 164 76 170 35z m437 -175 c22
-6 77 -29 122 -50 45 -21 90 -39 100 -39 10 0 25 -5 33 -10 36 -23 -70 5 -140
37 -110 50 -175 62 -345 65 -139 2 -144 2 -65 9 105 8 242 3 295 -12z m-788
-415 c-3 -3 -12 -4 -19 -1 -8 3 -5 6 6 6 11 1 17 -2 13 -5z m96 -35 c20 -11
37 -21 37 -24 0 -4 -111 44 -120 53 -9 9 45 -11 83 -29z m147 -1288 c178 -44
285 -55 520 -55 366 0 682 56 767 136 13 12 23 17 23 11 0 -20 -82 -85 -137
-109 -81 -36 -204 -70 -328 -90 -138 -23 -481 -26 -595 -6 -222 40 -367 95
-450 171 l-45 41 80 -39 c44 -22 118 -49 165 -60z m-121 -117 c10 -9 -85 -3
-99 6 -10 6 3 7 40 3 30 -3 57 -7 59 -9z m1416 6 c-11 -5 -49 -8 -85 -8 -62 1
-63 1 -20 8 68 11 130 11 105 0z m-1175 -55 l125 -14 -150 5 c-168 6 -282 21
-165 22 36 0 121 -6 190 -13z m1088 10 c-5 -5 -289 -33 -393 -38 -33 -2 22 -4
123 -5 113 -1 182 -6 182 -12 0 -5 -1 -10 -2 -10 -2 0 -50 -10 -108 -21 -155
-30 -536 -37 -760 -14 -311 31 -342 54 -77 57 95 0 152 4 127 7 -25 3 54 5
175 3 160 -2 276 2 425 16 210 20 317 26 308 17z m-1400 -54 c80 -39 259 -66
545 -82 363 -20 845 32 940 101 34 26 36 8 1 -19 -49 -39 -240 -79 -477 -102
-262 -24 -713 -1 -907 47 -59 15 -140 49 -140 58 0 3 -2 10 -3 18 -2 7 -2 10
1 5 2 -4 20 -16 40 -26z"/>
<path d="M3835 3650 c3 -5 8 -10 11 -10 2 0 4 5 4 10 0 6 -5 10 -11 10 -5 0
-7 -4 -4 -10z"/>
<path d="M3465 3560 c3 -5 10 -10 16 -10 5 0 9 5 9 10 0 6 -7 10 -16 10 -8 0
-12 -4 -9 -10z"/>
<path d="M1954 3360 c-35 -23 -79 -82 -88 -120 -4 -14 3 -6 15 18 12 23 42 60
67 82 50 45 52 49 6 20z"/>
<path d="M2998 2800 c-44 -78 -128 -89 -267 -35 -85 33 -97 35 -198 33 l-108
-1 110 -6 c91 -5 124 -12 192 -39 132 -52 239 -37 279 39 20 40 14 47 -8 9z"/>
<path d="M2330 2780 c-27 -6 -29 -8 -10 -8 14 -1 43 3 65 7 33 7 35 9 10 9
-16 -1 -46 -4 -65 -8z"/>
<path d="M2258 2763 c6 -2 18 -2 25 0 6 3 1 5 -13 5 -14 0 -19 -2 -12 -5z"/>
<path d="M3040 2268 c-99 -48 -215 -203 -254 -339 -36 -124 -57 -318 -61 -554
-3 -241 -2 -238 15 45 13 220 43 428 75 521 41 121 115 212 210 259 22 11 33
20 24 20 -8 0 -38 -11 -65 -24 l-49 -25 40 35 c22 20 60 46 85 59 57 30 40 32
-20 3z"/>
<path d="M3417 2138 c-15 -5 -24 -14 -20 -21 4 -7 0 -8 -13 -3 -10 4 -16 4
-12 1 3 -4 -10 -22 -30 -40 -21 -18 -45 -48 -55 -67 -17 -31 -17 -32 0 -8 33
47 71 80 92 80 34 0 44 -35 37 -129 -5 -73 -66 -650 -80 -761 -3 -26 -2 -30 4
-15 5 11 25 166 45 345 46 425 63 569 71 603 6 29 3 31 -39 15z"/>
<path d="M2119 2109 c35 -59 49 -153 70 -464 12 -165 23 -322 25 -350 2 -27 2
36 -1 140 -5 243 -20 485 -34 555 -13 61 -39 119 -64 140 -13 11 -12 6 4 -21z"/>
<path d="M2952 2037 c-58 -61 -96 -202 -106 -392 l-5 -100 13 115 c23 199 45
278 97 358 32 47 32 52 1 19z"/>
<path d="M2001 2015 c1 -19 18 -51 18 -35 0 8 -4 22 -9 30 -5 8 -9 11 -9 5z"/>
<path d="M2021 1955 c0 -5 7 -39 14 -75 14 -64 15 -64 9 -12 -4 45 -23 115
-23 87z"/>
<path d="M3351 1804 c0 -11 3 -14 6 -6 3 7 2 16 -1 19 -3 4 -6 -2 -5 -13z"/>
<path d="M2053 1775 c0 -22 2 -30 4 -17 2 12 2 30 0 40 -3 9 -5 -1 -4 -23z"/>
<path d="M3342 1715 c0 -16 2 -22 5 -12 2 9 2 23 0 30 -3 6 -5 -1 -5 -18z"/>
<path d="M2062 1690 c0 -19 2 -27 5 -17 2 9 2 25 0 35 -3 9 -5 1 -5 -18z"/>
<path d="M3332 1620 c0 -19 2 -27 5 -17 2 9 2 25 0 35 -3 9 -5 1 -5 -18z"/>
<path d="M2073 1595 c0 -22 2 -30 4 -17 2 12 2 30 0 40 -3 9 -5 -1 -4 -23z"/>
<path d="M3322 1520 c0 -19 2 -27 5 -17 2 9 2 25 0 35 -3 9 -5 1 -5 -18z"/>
<path d="M2083 1500 c0 -25 2 -35 4 -22 2 12 2 32 0 45 -2 12 -4 2 -4 -23z"/>
<path d="M2833 1490 c0 -30 2 -43 4 -27 2 15 2 39 0 55 -2 15 -4 2 -4 -28z"/>
<path d="M3313 1415 c0 -22 2 -30 4 -17 2 12 2 30 0 40 -3 9 -5 -1 -4 -23z"/>
<path d="M2092 1400 c0 -19 2 -27 5 -17 2 9 2 25 0 35 -3 9 -5 1 -5 -18z"/>
<path d="M1983 1325 c0 -22 2 -30 4 -17 2 12 2 30 0 40 -3 9 -5 -1 -4 -23z"/>
<path d="M2102 1315 c0 -16 2 -22 5 -12 2 9 2 23 0 30 -3 6 -5 -1 -5 -18z"/>
<path d="M3302 1310 c0 -19 2 -27 5 -17 2 9 2 25 0 35 -3 9 -5 1 -5 -18z"/>
<path d="M2223 1185 c0 -33 2 -45 4 -27 2 18 2 45 0 60 -2 15 -4 0 -4 -33z"/>
<path d="M3292 1190 c0 -19 2 -27 5 -17 2 9 2 25 0 35 -3 9 -5 1 -5 -18z"/>
<path d="M2757 4474 c-13 -13 -7 -52 8 -58 27 -10 46 5 43 33 -3 26 -35 41
-51 25z m33 -24 c0 -5 -4 -10 -10 -10 -5 0 -10 5 -10 10 0 6 5 10 10 10 6 0
10 -4 10 -10z"/>
<path d="M2865 4370 c-3 -5 -1 -10 4 -10 6 0 11 5 11 10 0 6 -2 10 -4 10 -3 0
-8 -4 -11 -10z"/>
<path d="M2808 4326 c-25 -18 -22 -26 7 -26 18 0 25 5 25 20 0 23 -8 25 -32 6z"/>
<path d="M1950 4292 c-28 -23 -20 -59 16 -68 46 -12 72 37 38 70 -20 20 -27
20 -54 -2z m43 -27 c1 -5 -6 -11 -15 -13 -11 -2 -18 3 -18 13 0 17 30 18 33 0z"/>
<path d="M2663 4290 c-32 -13 -28 -17 12 -12 19 2 35 8 35 13 0 11 -18 11 -47
-1z"/>
<path d="M3077 4204 c-27 -27 20 -77 49 -53 23 19 13 53 -16 57 -14 2 -29 0
-33 -4z m43 -24 c0 -5 -7 -10 -15 -10 -8 0 -15 5 -15 10 0 6 7 10 15 10 8 0
15 -4 15 -10z"/>
<path d="M2764 4055 c-15 -11 -17 -18 -8 -31 15 -25 29 -27 48 -9 21 21 20 32
-3 44 -13 7 -24 6 -37 -4z m26 -15 c0 -5 -4 -10 -10 -10 -5 0 -10 5 -10 10 0
6 5 10 10 10 6 0 10 -4 10 -10z"/>
<path d="M2976 3969 c-18 -26 -11 -46 17 -55 29 -9 61 30 47 57 -14 25 -45 24
-64 -2z m42 -17 c2 -7 -3 -12 -12 -12 -9 0 -16 7 -16 16 0 17 22 14 28 -4z"/>
<path d="M2023 3959 c-16 -16 -5 -39 19 -39 14 0 19 6 16 22 -4 25 -19 33 -35
17z"/>
<path d="M2392 3890 c-11 -33 -16 -58 -12 -55 11 7 44 105 38 111 -3 2 -14
-23 -26 -56z"/>
<path d="M1823 3884 c-3 -8 -1 -20 6 -27 14 -14 47 15 37 32 -10 16 -36 13
-43 -5z"/>
<path d="M2721 3881 c-19 -12 -6 -43 16 -39 10 2 18 12 18 22 0 22 -14 29 -34
17z"/>
<path d="M3770 3836 c-27 -33 18 -72 48 -42 13 13 14 20 6 34 -15 23 -38 26
-54 8z m34 -27 c-3 -5 -10 -7 -15 -3 -5 3 -7 10 -3 15 3 5 10 7 15 3 5 -3 7
-10 3 -15z"/>
<path d="M1522 3818 c2 -15 11 -24 26 -26 18 -3 22 1 22 22 0 21 -5 26 -26 26
-21 0 -25 -4 -22 -22z"/>
<path d="M2096 3763 c-11 -11 -6 -23 9 -23 8 0 15 4 15 9 0 13 -16 22 -24 14z"/>
<path d="M3322 3731 c-8 -4 -12 -19 -10 -32 4 -29 45 -34 61 -7 19 30 -19 60
-51 39z m28 -26 c0 -8 -4 -15 -10 -15 -5 0 -10 7 -10 15 0 8 5 15 10 15 6 0
10 -7 10 -15z"/>
<path d="M2795 3720 c-4 -7 -3 -16 3 -22 14 -14 45 -2 40 15 -6 16 -34 21 -43
7z"/>
<path d="M3655 3721 c-9 -16 3 -31 26 -31 14 0 19 6 17 17 -4 20 -33 29 -43
14z"/>
<path d="M1651 3691 c-17 -11 -7 -41 13 -41 22 0 30 20 15 36 -9 8 -19 10 -28
5z"/>
<path d="M2994 3686 c-8 -22 3 -33 18 -18 9 9 9 15 0 24 -9 9 -13 7 -18 -6z"/>
<path d="M1296 3675 c-34 -34 -12 -95 34 -95 21 0 35 8 47 26 15 24 15 29 2
53 -17 31 -59 39 -83 16z m54 -15 c0 -5 -9 -10 -20 -10 -11 0 -20 -4 -20 -9 0
-4 12 -6 26 -3 20 4 25 1 22 -9 -6 -17 -37 -24 -50 -11 -15 15 1 52 23 52 10
0 19 -4 19 -10z"/>
<path d="M2128 3678 c-8 -21 2 -38 22 -38 19 0 30 17 23 38 -3 6 -13 12 -23
12 -10 0 -20 -6 -22 -12z"/>
<path d="M2620 3665 c0 -8 2 -15 4 -15 2 0 11 -3 20 -6 12 -4 16 0 16 15 0 14
-6 21 -20 21 -11 0 -20 -7 -20 -15z"/>
<path d="M3032 3649 c-45 -17 -48 -78 -5 -106 30 -20 68 -6 85 31 21 47 -29
93 -80 75z m46 -21 c30 -30 -4 -77 -41 -57 -20 11 -23 55 -4 62 21 9 32 8 45
-5z"/>
<path d="M1012 3598 c-17 -17 -15 -32 9 -54 27 -24 54 -8 54 32 0 24 -5 30
-25 32 -14 2 -31 -3 -38 -10z m48 -19 c0 -10 -27 -19 -34 -12 -12 12 -5 22 14
20 11 -1 20 -4 20 -8z"/>
<path d="M2614 3595 c-8 -21 2 -45 19 -45 8 0 20 7 27 15 10 12 10 18 0 30 -7
8 -19 15 -27 15 -7 0 -16 -7 -19 -15z"/>
<path d="M1494 3556 c-3 -8 -4 -23 -2 -33 5 -25 61 -25 66 0 7 37 -51 67 -64
33z m36 -16 c0 -5 -4 -10 -10 -10 -5 0 -10 5 -10 10 0 6 5 10 10 10 6 0 10 -4
10 -10z"/>
<path d="M3264 3549 c-10 -17 13 -36 27 -22 12 12 4 33 -11 33 -5 0 -12 -5
-16 -11z"/>
<path d="M1350 3470 c0 -15 5 -20 18 -18 9 2 17 10 17 18 0 8 -8 16 -17 18
-13 2 -18 -3 -18 -18z"/>
<path d="M3781 3421 c-13 -24 8 -55 34 -50 28 6 42 34 26 53 -18 22 -48 20
-60 -3z m39 -11 c0 -5 -4 -10 -10 -10 -5 0 -10 5 -10 10 0 6 5 10 10 10 6 0
10 -4 10 -10z"/>
<path d="M1432 3400 c2 -11 19 -31 38 -43 20 -12 30 -15 23 -7 -6 8 -13 26
-15 40 -2 17 -10 26 -26 28 -19 3 -23 0 -20 -18z m23 0 c3 -5 1 -10 -4 -10 -6
0 -11 5 -11 10 0 6 2 10 4 10 3 0 8 -4 11 -10z"/>
<path d="M1240 3390 c0 -5 5 -10 10 -10 6 0 10 5 10 10 0 6 -4 10 -10 10 -5 0
-10 -4 -10 -10z"/>
<path d="M1157 3268 c-8 -23 13 -48 39 -48 29 0 42 24 24 45 -15 18 -57 20
-63 3z m38 -8 c3 -5 -1 -10 -9 -10 -9 0 -16 5 -16 10 0 6 4 10 9 10 6 0 13 -4
16 -10z"/>
<path d="M1039 3104 c-17 -21 0 -49 31 -49 31 0 48 28 31 49 -8 9 -21 16 -31
16 -10 0 -23 -7 -31 -16z m41 -12 c0 -13 -12 -22 -22 -16 -10 6 -1 24 13 24 5
0 9 -4 9 -8z"/>
<path d="M1310 2960 c0 -13 7 -20 18 -20 24 0 32 8 25 26 -8 22 -43 17 -43 -6z"/>
<path d="M1182 2778 c-19 -19 -14 -45 10 -62 19 -13 25 -14 43 -2 25 16 31 42
15 61 -15 18 -52 19 -68 3z m48 -22 c0 -8 -5 -18 -11 -22 -14 -8 -33 11 -25
25 10 16 36 13 36 -3z"/>
<path d="M3510 680 c-122 -3 -175 -8 -156 -13 37 -10 345 3 352 14 3 5 2 8 -3
7 -4 -1 -91 -5 -193 -8z"/>
</g>
</svg>